<svg xmlns="http://www.w3.org/2000/svg" width="600" height="600" viewBox="0 0 600 600">
  <defs>
    <linearGradient id="g" x1="0" y1="0" x2="1" y2="1">
      <stop offset="0" stop-color="#f3dcd9"/>
      <stop offset="0.55" stop-color="#e3a9ad"/>
      <stop offset="1" stop-color="#a85563"/>
    </linearGradient>
    <radialGradient id="v" cx="0.5" cy="0.42" r="0.75">
      <stop offset="0.55" stop-color="#000" stop-opacity="0"/>
      <stop offset="1" stop-color="#5a3a2e" stop-opacity="0.28"/>
    </radialGradient>
  </defs>
  <rect width="600" height="600" fill="url(#g)"/>
  <path transform="translate(300,250) scale(9)" opacity="0.9" fill="#fffaf2" d="M0 4.5 C-3 0 -8 0.5 -8 -3 C-8 -6 -4.5 -7.5 0 -3.5 C4.5 -7.5 8 -6 8 -3 C8 0.5 3 0 0 4.5 Z"/>
  <path transform="translate(120,120) scale(3)" opacity="0.35" fill="#fffaf2" d="M0 4.5 C-3 0 -8 0.5 -8 -3 C-8 -6 -4.5 -7.5 0 -3.5 C4.5 -7.5 8 -6 8 -3 C8 0.5 3 0 0 4.5 Z"/>
  <path transform="translate(500,160) scale(2.4)" opacity="0.3" fill="#fffaf2" d="M0 4.5 C-3 0 -8 0.5 -8 -3 C-8 -6 -4.5 -7.5 0 -3.5 C4.5 -7.5 8 -6 8 -3 C8 0.5 3 0 0 4.5 Z"/>
  <path transform="translate(150,470) scale(2.2)" opacity="0.28" fill="#fffaf2" d="M0 4.5 C-3 0 -8 0.5 -8 -3 C-8 -6 -4.5 -7.5 0 -3.5 C4.5 -7.5 8 -6 8 -3 C8 0.5 3 0 0 4.5 Z"/>
  <path transform="translate(470,470) scale(3)" opacity="0.32" fill="#fffaf2" d="M0 4.5 C-3 0 -8 0.5 -8 -3 C-8 -6 -4.5 -7.5 0 -3.5 C4.5 -7.5 8 -6 8 -3 C8 0.5 3 0 0 4.5 Z"/>
  <rect width="600" height="600" fill="url(#v)"/>
  <text x="300" y="430" text-anchor="middle" font-family="Cormorant Garamond, Georgia, serif" font-size="74" font-weight="600" fill="#fffaf2" letter-spacing="1">Moment 3</text>
  <text x="300" y="478" text-anchor="middle" font-family="Mulish, sans-serif" font-size="24" letter-spacing="3" fill="#fffaf2" opacity="0.85">À COMPLÉTER</text>
  <text x="300" y="552" text-anchor="middle" font-family="Mulish, sans-serif" font-size="18" letter-spacing="4" fill="#fffaf2" opacity="0.7">PHOTO 3 · À REMPLACER</text>
</svg>