<svg xmlns="http://www.w3.org/2000/svg" width="64" height="64" viewBox="0 0 64 64">
  <defs>
    <linearGradient id="g" x1="0" y1="0" x2="1" y2="1">
      <stop offset="0" stop-color="#e7b3b1"/>
      <stop offset="0.5" stop-color="#c87a86"/>
      <stop offset="1" stop-color="#a85563"/>
    </linearGradient>
  </defs>
  <rect width="64" height="64" rx="15" fill="#fbf5ec"/>
  <path fill="url(#g)" d="M32 52C16 41 9 33.5 9 24.5 9 17.6 14.4 12 21 12c4 0 7.7 2 10 5.2C33.3 14 37 12 41 12c6.6 0 12 5.6 12 12.5C53 33.5 46 41 32 52Z"/>
  <path fill="#c2a14d" d="M46.5 16.2l1.1 2.9 2.9 1.1-2.9 1.1-1.1 2.9-1.1-2.9-2.9-1.1 2.9-1.1z"/>
</svg>
